<?xml version="1.0" encoding="UTF-8" standalone="no"?>
<!-- Created with Inkscape (http://www.inkscape.org/) -->

<svg
   xmlns:dc="http://purl.org/dc/elements/1.1/"
   xmlns:cc="http://creativecommons.org/ns#"
   xmlns:rdf="http://www.w3.org/1999/02/22-rdf-syntax-ns#"
   xmlns:svg="http://www.w3.org/2000/svg"
   xmlns="http://www.w3.org/2000/svg"
   xmlns:sodipodi="http://sodipodi.sourceforge.net/DTD/sodipodi-0.dtd"
   xmlns:inkscape="http://www.inkscape.org/namespaces/inkscape"
   width="100"
   height="100"
   viewBox="0 0 26.458333 26.458334"
   version="1.1"
   id="svg8"
   inkscape:version="0.92.1 r15371"
   sodipodi:docname="logo-flat.svg">
  <defs
     id="defs2" />
  <sodipodi:namedview
     id="base"
     pagecolor="#ffffff"
     bordercolor="#666666"
     borderopacity="1.0"
     inkscape:pageopacity="0.0"
     inkscape:pageshadow="2"
     inkscape:zoom="4"
     inkscape:cx="63.991954"
     inkscape:cy="36.708873"
     inkscape:document-units="mm"
     inkscape:current-layer="layer1"
     showgrid="false"
     units="px"
     inkscape:window-width="1920"
     inkscape:window-height="1004"
     inkscape:window-x="0"
     inkscape:window-y="261"
     inkscape:window-maximized="1" />
  <metadata
     id="metadata5">
    <rdf:RDF>
      <cc:Work
         rdf:about="">
        <dc:format>image/svg+xml</dc:format>
        <dc:type
           rdf:resource="http://purl.org/dc/dcmitype/StillImage" />
        <dc:title></dc:title>
      </cc:Work>
    </rdf:RDF>
  </metadata>
  <g
     inkscape:label="Layer 1"
     inkscape:groupmode="layer"
     id="layer1"
     transform="translate(0,-270.54165)">
    <path
       style="fill:#5ad35a;fill-opacity:1;stroke-width:0.24341665"
       d="M 13.229167,272.90404 A 10.866815,10.866815 0 0 0 2.3621298,283.77056 10.866815,10.866815 0 0 0 13.229167,294.6376 10.866815,10.866815 0 0 0 24.096204,283.77056 10.866815,10.866815 0 0 0 13.229167,272.90404 Z m 0,2.55127 a 8.3154754,8.3154754 0 0 1 8.315254,8.31525 8.3154754,8.3154754 0 0 1 -8.315254,8.31577 8.3154754,8.3154754 0 0 1 -8.3152549,-8.31577 8.3154754,8.3154754 0 0 1 8.3152549,-8.31525 z"
       id="path10"
       inkscape:connector-curvature="0" />
    <path
       id="path24"
       d="m 5.9825808,274.02748 v 1.03973 1.06092 1.03973 H 16.522506 L 5.6983604,290.57221 v 1.03921 0.86351 1.03922 H 20.759973 v -1.03922 -1.06091 -1.03973 H 9.6516076 L 20.475753,276.96994 v -1.03922 -0.86351 -1.03973 z"
       style="font-style:normal;font-weight:normal;font-size:25.30454254px;line-height:1.25;font-family:sans-serif;letter-spacing:0px;word-spacing:0px;fill:#c8c8c8;fill-opacity:1;stroke:none;stroke-width:0.63261354"
       inkscape:connector-curvature="0" />
  </g>
</svg>
